HIERARCHY
ROOT SpineBase
{
  OFFSET 0.000000 0.000000 0.000000
  CHANNELS 6 Xposition Yposition Zposition Zrotation Xrotation Yrotation
  JOINT SpineMid
  {
    OFFSET 0.000000 26.072700 0.000000
    CHANNELS 3 Zrotation Xrotation Yrotation
    JOINT SpineShoulder
    {
      OFFSET -0.261291 19.605056 -0.448782
      CHANNELS 3 Zrotation Xrotation Yrotation
      JOINT Neck
      {
        OFFSET -0.095754 6.552413 -0.446995
        CHANNELS 3 Zrotation Xrotation Yrotation
        JOINT Head
        {
          OFFSET 1.526618 14.714830 -2.510604
          CHANNELS 3 Zrotation Xrotation Yrotation
          End Site
          {
            OFFSET 0 0 0
          }
        }
      }
      JOINT ShoulderLeft
      {
        OFFSET -10.888126 -0.563978 -10.062721
        CHANNELS 3 Zrotation Xrotation Yrotation
        JOINT ElbowLeft
        {
          OFFSET 2.760343 -21.868219 -9.522494
          CHANNELS 3 Zrotation Xrotation Yrotation
          JOINT WristLeft
          {
            OFFSET 13.504585 -10.370058 -12.724460
            CHANNELS 3 Zrotation Xrotation Yrotation
            JOINT HandLeft
            {
              OFFSET 5.169422 -3.755316 -3.821012
              CHANNELS 3 Zrotation Xrotation Yrotation
              JOINT HandTipLeft
              {
                OFFSET 4.713121 -4.163480 -3.620000
                CHANNELS 3 Zrotation Xrotation Yrotation
                End Site
                {
                  OFFSET 0 0 0
                }
              }
              JOINT ThumbLeft
              {
                OFFSET 1.723230 3.761277 -2.299843
                CHANNELS 3 Zrotation Xrotation Yrotation
                End Site
                {
                  OFFSET 0 0 0
                }
              }
            }
          }
        }
      }
      JOINT ShoulderRight
      {
        OFFSET 14.761990 -0.320678 8.537265
        CHANNELS 3 Zrotation Xrotation Yrotation
        JOINT ElbowRight
        {
          OFFSET 13.346735 -21.978146 -5.102323
          CHANNELS 3 Zrotation Xrotation Yrotation
          JOINT WristRight
          {
            OFFSET 9.461504 -12.445323 -18.369753
            CHANNELS 3 Zrotation Xrotation Yrotation
            JOINT HandRight
            {
              OFFSET 2.273114 -3.440933 -5.597108
              CHANNELS 3 Zrotation Xrotation Yrotation
              JOINT HandTipRight
              {
                OFFSET 3.993273 -3.391356 -6.946756
                CHANNELS 3 Zrotation Xrotation Yrotation
                End Site
                {
                  OFFSET 0 0 0
                }
              }
              JOINT ThumbRight
              {
                OFFSET 3.171457 0.362105 -1.014986
                CHANNELS 3 Zrotation Xrotation Yrotation
                End Site
                {
                  OFFSET 0 0 0
                }
              }
            }
          }
        }
      }
    }
  }
  JOINT HipLeft
  {
    OFFSET -6.214921 1.326396 -6.020546
    CHANNELS 3 Zrotation Xrotation Yrotation
    JOINT KneeLeft
    {
      OFFSET 22.303789 4.804347 -27.914898
      CHANNELS 3 Zrotation Xrotation Yrotation
      JOINT AnkleLeft
      {
        OFFSET 4.668185 -35.435325 2.091446
        CHANNELS 3 Zrotation Xrotation Yrotation
        JOINT FootLeft
        {
          OFFSET 6.159359 -5.534216 -0.902846
          CHANNELS 3 Zrotation Xrotation Yrotation
          End Site
          {
            OFFSET 0 0 0
          }
        }
      }
    }
  }
  JOINT HipRight
  {
    OFFSET 7.040013 0.995901 -0.066692
    CHANNELS 3 Zrotation Xrotation Yrotation
    JOINT KneeRight
    {
      OFFSET 29.960215 7.054506 -22.569895
      CHANNELS 3 Zrotation Xrotation Yrotation
      JOINT AnkleRight
      {
        OFFSET -0.652765 -36.792326 3.952242
        CHANNELS 3 Zrotation Xrotation Yrotation
        JOINT FootRight
        {
          OFFSET 3.439195 -6.658285 -6.087168
          CHANNELS 3 Zrotation Xrotation Yrotation
          End Site
          {
            OFFSET 0 0 0
          }
        }
      }
    }
  }
}
MOTION
Frames: 12
Frame Time: 0.033333
-51.579918 36.312232 361.013583 -0.000000 0.000000 -24.188673 -0.000000 0.000000 24.188673 -0.000000 0.000000 0.000000 -0.000000 0.000000 0.000000 0.000000 0.000000 0.000000 -0.000000 0.000000 0.000000 -0.000000 0.000000 0.000000 -0.000000 0.000000 0.000000 -0.000000 0.000000 0.000000 0.000000 0.000000 0.000000 0.000000 0.000000 0.000000 -0.000000 0.000000 0.000000 -0.000000 0.000000 0.000000 -0.000000 0.000000 0.000000 -0.000000 0.000000 0.000000 0.000000 0.000000 0.000000 0.000000 0.000000 0.000000 -0.000000 0.000000 24.188673 -0.000000 0.000000 0.000000 -0.000000 0.000000 0.000000 0.000000 0.000000 0.000000 -0.000000 0.000000 24.188673 -0.000000 0.000000 0.000000 -0.000000 0.000000 0.000000 0.000000 0.000000 0.000000
-51.511182 36.326193 361.210133 0.578341 -0.201505 -24.675761 -0.609652 -0.058349 24.676468 -0.000000 0.000000 0.000000 1.003614 1.040615 0.054294 0.000000 0.000000 0.000000 -0.899594 -0.474462 0.329039 -0.263660 -0.676202 -0.418702 0.030520 0.184889 -0.105965 0.902148 2.669156 2.275104 0.000000 0.000000 0.000000 0.000000 0.000000 0.000000 -0.000000 0.000000 0.000000 0.157454 -0.709306 -0.776963 -0.111597 1.706148 1.317090 -2.003289 -3.649209 0.175602 0.000000 0.000000 0.000000 0.000000 0.000000 0.000000 -0.609652 -0.058349 24.676468 -0.000000 0.000000 0.000000 -0.000000 0.000000 0.000000 0.000000 0.000000 0.000000 -0.609652 -0.058349 24.676468 -0.000000 0.000000 0.000000 -0.474493 1.291209 1.097127 0.000000 0.000000 0.000000
-51.401926 36.331588 361.347812 1.133274 -0.303853 -24.992330 -1.155529 -0.203428 24.993284 -0.000000 0.000000 0.000000 1.802171 1.748343 0.099026 0.000000 0.000000 0.000000 -1.678019 -0.794028 0.621907 -0.343222 -1.216463 -0.820670 0.043001 0.370204 -0.103136 1.434551 4.504444 3.887081 0.000000 0.000000 0.000000 0.000000 0.000000 0.000000 -0.000000 0.000000 0.000000 0.321392 -1.304458 -1.484173 -0.332230 3.197433 2.598408 -3.635844 -6.656331 0.113761 0.000000 0.000000 0.000000 0.000000 0.000000 0.000000 -0.947576 0.044812 26.081978 -0.295917 -0.131532 -1.088746 -0.080607 0.713670 0.807746 0.000000 0.000000 0.000000 -1.155529 -0.203428 24.993284 0.504384 1.233152 0.026907 -1.481086 0.938730 1.949131 0.000000 0.000000 0.000000
-51.252148 36.328419 361.426620 1.666464 -0.308398 -25.133414 -1.639671 -0.428617 25.131766 -0.000000 0.000000 0.000000 2.415784 2.144272 0.145313 0.000000 0.000000 0.000000 -2.294491 -0.922589 0.869564 -0.338836 -1.717920 -1.189690 0.050424 0.566391 -0.003871 1.690596 5.599649 4.906074 0.000000 0.000000 0.000000 0.000000 0.000000 0.000000 -0.000000 0.000000 0.000000 0.490972 -1.743599 -2.082662 -0.647663 4.402518 3.801138 -4.936370 -9.054027 -0.098588 0.000000 0.000000 0.000000 0.000000 0.000000 0.000000 -1.334002 -0.035699 26.708051 0.337747 0.299882 -1.460449 -0.692814 0.338117 0.835740 0.000000 0.000000 0.000000 -1.639671 -0.428617 25.131766 0.661430 1.526046 0.035220 -2.156356 1.120853 2.637496 0.000000 0.000000 0.000000
-51.061849 36.316685 361.446556 2.179455 -0.216000 -25.096187 -1.321182 -1.256807 25.099774 -0.449947 0.793797 0.003397 2.857527 2.237919 0.200802 0.000000 0.000000 0.000000 -2.710871 -0.829952 1.062761 -0.327662 -2.250167 -1.511865 0.059354 0.781162 0.184967 1.723830 6.019845 5.374122 0.000000 0.000000 0.000000 0.000000 0.000000 0.000000 -0.000000 0.000000 0.000000 0.664340 -1.991358 -2.536614 -1.037171 5.259457 4.880452 -5.919086 -10.861572 -0.388800 0.000000 0.000000 0.000000 0.000000 0.000000 0.000000 -1.664556 -0.178503 27.113163 0.349142 0.299732 -1.884990 -0.559428 0.260207 0.791544 0.000000 0.000000 0.000000 -2.065393 -0.728722 25.087160 0.755806 1.605107 0.042191 -2.776735 1.116086 3.140882 0.000000 0.000000 0.000000
-50.831029 36.296386 361.407622 2.673686 -0.027021 -24.880120 -1.490198 -1.465604 24.884968 -0.705216 0.729856 -0.001925 3.134161 2.027211 0.270656 0.000000 0.000000 0.000000 -2.895875 -0.496363 1.192082 -0.365055 -2.857719 -1.776072 0.072491 1.021066 0.460905 1.558440 5.803182 5.310099 0.000000 0.000000 0.000000 0.000000 0.000000 0.000000 -0.000000 0.000000 0.000000 0.837943 -2.024802 -2.818855 -1.477204 5.723634 5.795265 -6.578605 -12.081952 -0.693487 0.000000 0.000000 0.000000 0.000000 0.000000 0.000000 -1.942146 -0.380610 27.295093 0.307730 0.251343 -2.277469 -0.242707 0.086652 0.589311 0.000000 0.000000 0.000000 -2.437201 -1.100049 24.857349 0.787882 1.471190 0.048490 -3.338726 0.926022 3.461807 0.000000 0.000000 0.000000
-50.398306 36.315091 361.261519 3.404452 0.331674 -24.443001 -1.702265 -1.727132 24.445682 -1.140263 0.537139 -0.013602 3.251679 1.317664 0.382706 0.000000 0.000000 0.000000 -2.409464 0.231529 1.085341 -0.667695 -3.552543 -1.880746 -0.129833 1.260991 1.084357 1.176211 4.478686 4.162561 0.000000 0.000000 0.000000 0.000000 0.000000 0.000000 -0.000000 0.000000 0.000000 0.919374 -1.531352 -2.543289 -1.982391 1.981227 4.530157 -5.199398 -9.753173 -1.495435 0.000000 0.000000 0.000000 0.000000 0.000000 0.000000 -2.362806 -0.842867 27.332022 0.176455 0.221185 -2.766496 0.613560 -0.529847 -0.156869 0.000000 0.000000 0.000000 -2.963138 -1.709558 24.388925 0.525600 0.910547 0.036163 -6.314875 -3.712738 3.745917 0.000000 0.000000 0.000000
-49.662500 36.480338 360.870516 4.376436 1.126666 -22.932161 -1.953905 -2.097863 22.912080 -0.553054 0.749961 0.045279 2.290409 -0.343847 0.493230 0.000000 0.000000 0.000000 -2.974167 0.536768 0.821003 -0.809389 -4.305539 -2.034987 0.051847 1.590504 1.465854 0.178744 2.582722 2.868662 0.000000 0.000000 0.000000 0.000000 0.000000 0.000000 -0.118267 0.261763 0.235436 -0.075173 -2.453930 -2.990074 -2.425841 3.381989 6.013390 -5.009522 -9.523070 -0.946220 0.000000 0.000000 0.000000 0.000000 0.000000 0.000000 -2.886372 -1.854434 26.346321 0.092568 0.220271 -3.352285 1.565842 -0.926031 -0.722228 0.000000 0.000000 0.000000 -2.823676 -2.123243 24.817298 -0.958287 -0.235659 -1.983410 -6.737854 -4.649125 3.741869 0.000000 0.000000 0.000000
-49.360031 36.357212 360.712072 4.759753 1.516339 -22.416602 -1.931398 -2.040226 22.388282 -0.482293 0.967393 0.065295 1.417320 -2.414410 0.593918 0.000000 0.000000 0.000000 -3.727931 1.337930 1.049274 -0.597110 -6.082253 -2.888151 0.240851 2.165031 2.043696 -0.611509 0.725968 1.409061 0.000000 0.000000 0.000000 0.000000 0.000000 0.000000 0.030320 0.758017 0.706027 -0.379195 -4.134458 -4.531177 -4.061250 8.161634 10.996131 -6.571124 -14.512443 -4.432316 0.000000 0.000000 0.000000 0.000000 0.000000 0.000000 -2.996940 -2.057863 26.123155 -0.148950 -0.054083 -3.685845 2.593485 -1.659374 -1.700585 0.000000 0.000000 0.000000 -2.838082 -2.427788 24.820489 -0.567138 -1.257599 -2.428116 -7.004538 -3.338406 3.564399 0.000000 0.000000 0.000000
-49.508724 35.997247 360.764162 4.496627 1.512327 -22.589593 -1.634257 -1.677362 22.575607 -0.369771 1.052804 0.077150 0.303053 -4.051887 0.564990 0.000000 0.000000 0.000000 -3.685615 1.682292 0.968584 -1.153253 -6.725605 -2.570165 0.708676 2.920751 2.536787 -1.085165 -1.522554 -1.057822 0.000000 0.000000 0.000000 0.000000 0.000000 0.000000 0.772582 0.673901 0.593301 -0.824260 -2.864992 -4.016370 -5.264459 9.696085 13.099188 -8.549272 -12.366938 4.454193 0.000000 0.000000 0.000000 0.000000 0.000000 0.000000 -2.836432 -2.357003 26.404041 0.123544 -0.067131 -3.822057 0.692113 -5.484917 -5.956210 0.000000 0.000000 0.000000 -2.679872 -2.193832 24.171000 -1.195249 -0.477825 -1.701622 0.259800 5.401659 2.434196 0.000000 0.000000 0.000000
-49.814956 35.303360 361.329798 3.896327 0.642263 -23.763220 -1.236820 -0.919973 23.793489 -0.340609 1.022947 0.081403 -0.889365 -4.002916 0.348403 0.000000 0.000000 0.000000 -3.262183 2.309602 0.803060 -1.509945 -6.791583 -2.226123 0.620142 3.792213 3.882784 -1.482316 -3.954330 -4.108496 0.000000 0.000000 0.000000 0.000000 0.000000 0.000000 1.998504 0.193649 -0.160113 -1.995617 1.049059 -1.058009 -6.087268 6.425400 12.296556 -6.535476 -7.795839 7.307058 0.000000 0.000000 0.000000 0.000000 0.000000 0.000000 -2.169023 0.223487 28.064238 -1.017371 -1.231604 -4.249609 0.268386 -4.536119 -4.835923 0.000000 0.000000 0.000000 -1.256129 1.110826 24.933895 -2.487046 -1.155053 -1.212344 4.420517 11.002975 0.861871 0.000000 0.000000 0.000000
-50.697130 34.785925 361.507271 2.571450 0.306702 -24.564078 -0.509937 -0.442877 24.603345 -0.183450 0.612180 0.074294 -1.656862 -4.065705 0.223959 0.000000 0.000000 0.000000 -2.392575 2.764011 0.589721 -1.538555 -5.787284 -1.323030 1.462661 5.041334 4.728373 -3.384112 -7.090257 -7.010112 0.000000 0.000000 0.000000 0.000000 0.000000 0.000000 3.711367 0.399023 -0.684023 -3.307162 4.416417 1.391225 -6.722317 3.756048 11.179765 -5.718551 -2.246656 13.287838 0.000000 0.000000 0.000000 0.000000 0.000000 0.000000 -0.811885 2.844313 28.019686 -1.990435 -2.501178 -3.382689 1.023429 0.507599 0.717030 0.000000 0.000000 0.000000 0.906065 4.522381 23.964472 -4.096965 -1.256345 0.421478 8.682294 15.100579 -0.761485 0.000000 0.000000 0.000000
